<?xml version="1.0" encoding="utf-8"?>
<!-- Generator: Adobe Illustrator 16.0.0, SVG Export Plug-In . SVG Version: 6.00 Build 0)  -->
<!DOCTYPE svg PUBLIC "-//W3C//DTD SVG 1.1//EN" "http://www.w3.org/Graphics/SVG/1.1/DTD/svg11.dtd">
<svg version="1.1" id="图层_1" xmlns="http://www.w3.org/2000/svg" xmlns:xlink="http://www.w3.org/1999/xlink" x="0px" y="0px"
	 width="595.28px" height="841.89px" viewBox="0 0 595.28 841.89" enable-background="new 0 0 595.28 841.89" xml:space="preserve">
<path fill="none" d="M67.964,70.896c0.143,0.576,0.158,0.625,0.144,1.216c-0.005,0.229-0.136,1.284-0.101,1.607
	c0.029,0.267,0.096,0.288,0.201,0.508c0.183,0.383,0.122,0.911,0.052,1.297c-0.039,0.211-0.12,0.512-0.244,0.684
	c-0.136,0.19-0.409,0.191-0.53,0.413c-0.174,0.319-0.945,0.92-1.006,1.251c-0.07,0.375-0.249,0.402-0.263,0.893
	c0.088,0.021,0.175,0.042,0.263,0.064c0.088,0.317,0.249,0.177,0.413,0.368c0.137,0.064,1.627,0.861,1.87,0.927
	c0.854,0.35,0.633,0.769,1.489,1.129c0.779,0.329,1.712,0.446,1.994,1.262c0,0.554,1.221,1.864,1.207,2.591H56.482
	c-0.014-0.727,1.207-2.037,1.207-2.591c0.281-0.817,1.214-0.934,1.993-1.262c0.855-0.361,0.635-0.779,1.489-1.129
	c0.244-0.066,1.344-0.864,1.481-0.927c0.164-0.192,0.325-0.051,0.413-0.368l0.195-0.081C63.216,78.329,63.063,78.296,63,78
	c-0.025-0.446-0.571-1.064-0.615-1.529c0.002,0.022-0.318-0.058-0.36-0.084c-0.451-0.283-0.46-1.431-0.504-1.909
	c-0.02-0.218,0.284-0.397,0.199-0.797c-0.495-2.343,0.214-3.439,1.334-3.803c0.777-0.315,2.229-0.899,3.583-0.066l0.336,0.312
	l0.544,0.094C67.79,70.374,67.964,70.896,67.964,70.896z"/>
<path fill="none" d="M64.968,69.258c0,0,2.321,0.359,3.633,2.656c0.974,1.704,0.654,5.527,0.654,5.527s-1.779,0-4.027,0
	c-2.422,0-4.547,0-4.547,0s-0.172-4.083,0.901-5.96C62.833,69.291,64.968,69.258,64.968,69.258z"/>
</svg>
