<?xml version="1.0" encoding="utf-8"?>
<!-- Generator: Adobe Illustrator 16.0.0, SVG Export Plug-In . SVG Version: 6.00 Build 0)  -->
<!DOCTYPE svg PUBLIC "-//W3C//DTD SVG 1.1//EN" "http://www.w3.org/Graphics/SVG/1.1/DTD/svg11.dtd">
<svg version="1.1" id="图层_1" xmlns="http://www.w3.org/2000/svg" xmlns:xlink="http://www.w3.org/1999/xlink" x="0px" y="0px"
	 width="1300px" height="1586px" viewBox="0 0 1300 1586" enable-background="new 0 0 1300 1586" xml:space="preserve">
<path fill-rule="evenodd" clip-rule="evenodd" fill="none" d="M43.926,101.257v-1.438h-0.021c0.008-0.12,0.021-0.238,0.021-0.359
	v-6.112V91.55c0-3.375-3.101-6.112-6.926-6.112c-3.825,0-6.926,2.736-6.926,6.112v1.798v6.112c0,0.121,0.013,0.24,0.021,0.359
	h-0.021v1.438c0,0-4.074-0.06-4.074-3.955c0-2.209,1.31-3.183,2.444-3.614V91.55C28.444,87.38,32.275,84,37,84
	c4.725,0,8.555,3.38,8.555,7.55v2.139C46.69,94.119,48,95.093,48,97.302C48,101.197,43.926,101.257,43.926,101.257z M31.704,101.257
	h-0.815v-7.909h0.815V101.257z M43.111,101.257h-0.815v-7.909h0.815V101.257z"/>
<path fill-rule="evenodd" clip-rule="evenodd" fill="none" d="M45.873,100.109l0.576,0.509l-5.761,5.084l-0.576-0.509
	L45.873,100.109z"/>
<path fill-rule="evenodd" clip-rule="evenodd" fill="none" d="M42.416,103.16l0.576,0.508c0.318,0.281,0.318,0.736,0,1.017
	l-2.304,2.034c-0.318,0.281-0.834,0.281-1.153,0l-0.576-0.509c-0.318-0.281-0.318-0.736,0-1.017l2.304-2.034
	C41.582,102.879,42.098,102.879,42.416,103.16z"/>
</svg>
