<?xml version="1.0" encoding="utf-8"?>
<!-- Generator: Adobe Illustrator 16.0.0, SVG Export Plug-In . SVG Version: 6.00 Build 0)  -->
<!DOCTYPE svg PUBLIC "-//W3C//DTD SVG 1.1//EN" "http://www.w3.org/Graphics/SVG/1.1/DTD/svg11.dtd">
<svg version="1.1" id="图层_1" xmlns="http://www.w3.org/2000/svg" xmlns:xlink="http://www.w3.org/1999/xlink" x="0px" y="0px"
	 width="1300px" height="1586px" viewBox="0 0 1300 1586" enable-background="new 0 0 1300 1586" xml:space="preserve">
<path fill="none" d="M280.496,320.917c0.143,0.577,0.158,0.625,0.144,1.216c-0.005,0.229-0.136,1.283-0.101,1.607
	c0.029,0.267,0.096,0.288,0.201,0.508c0.183,0.383,0.122,0.911,0.052,1.297c-0.039,0.211-0.12,0.512-0.244,0.684
	c-0.136,0.19-0.409,0.191-0.53,0.413c-0.174,0.319-0.075,0.767-0.185,1.112c-0.125,0.391-0.441,0.418-0.465,0.93
	c0.156,0.022,0.31,0.044,0.465,0.066c0.156,0.331,0.44,0.996,0.731,1.196c0.244,0.067,0.487,0.133,0.731,0.199
	c0.854,0.35,1.802,0.769,2.658,1.129c0.779,0.329,1.712,0.446,1.994,1.262c0,0.554,0.052,1.864,0.038,2.591h-16.971
	c-0.014-0.727,0.038-2.037,0.038-2.591c0.281-0.817,1.214-0.934,1.993-1.262c0.855-0.361,1.804-0.78,2.658-1.129
	c0.244-0.067,0.487-0.133,0.731-0.199c0.291-0.2,0.575-0.865,0.731-1.196l0.346-0.084c-0.079-0.437-0.349-0.47-0.462-0.78
	c-0.044-0.465-0.088-0.93-0.133-1.395c0.002,0.022-0.318-0.059-0.36-0.084c-0.451-0.283-0.46-1.431-0.504-1.909
	c-0.02-0.218,0.284-0.397,0.199-0.797c-0.495-2.343,0.214-3.439,1.334-3.803c0.777-0.315,2.229-0.899,3.583-0.066l0.336,0.311
	l0.544,0.094C280.322,320.395,280.496,320.917,280.496,320.917z"/>
</svg>
