<?xml version="1.0" encoding="utf-8"?>
<!-- Generator: Adobe Illustrator 16.0.0, SVG Export Plug-In . SVG Version: 6.00 Build 0)  -->
<!DOCTYPE svg PUBLIC "-//W3C//DTD SVG 1.1//EN" "http://www.w3.org/Graphics/SVG/1.1/DTD/svg11.dtd">
<svg version="1.1" id="图层_1" xmlns="http://www.w3.org/2000/svg" xmlns:xlink="http://www.w3.org/1999/xlink" x="0px" y="0px"
	 width="1300px" height="1586px" viewBox="0 0 1300 1586" enable-background="new 0 0 1300 1586" xml:space="preserve">
<path fill-rule="evenodd" clip-rule="evenodd" fill="none" d="M44.07,219.725H28.179c-0.507,0-0.917-0.408-0.917-0.912v-15.802
	c0-0.503,0.41-0.912,0.917-0.912h1.528v0.912c0,1.007,0.821,1.823,1.833,1.823s1.834-0.816,1.834-1.823V202.1h0.917v0.912
	c0,1.007,0.821,1.823,1.833,1.823s1.833-0.816,1.833-1.823V202.1h0.917v0.912c0,1.007,0.821,1.823,1.834,1.823
	c1.012,0,1.833-0.816,1.833-1.823V202.1h1.528c0.506,0,0.917,0.408,0.917,0.912v15.802C44.987,219.316,44.576,219.725,44.07,219.725
	z M34.625,207.266h-4.001c-0.506,0-0.917,0.408-0.917,0.912c0,0.503,0.411,0.912,0.917,0.912h4.001c0.506,0,0.917-0.408,0.917-0.912
	C35.542,207.674,35.132,207.266,34.625,207.266z M34.625,211.216h-4.001c-0.506,0-0.917,0.408-0.917,0.912s0.411,0.912,0.917,0.912
	h4.001c0.506,0,0.917-0.408,0.917-0.912S35.132,211.216,34.625,211.216z M34.778,215.167h-4.307c-0.422,0-0.764,0.34-0.764,0.76
	c0,0.42,0.342,0.76,0.764,0.76h4.307c0.422,0,0.764-0.34,0.764-0.76C35.542,215.507,35.2,215.167,34.778,215.167z M40.708,203.923
	c-0.506,0-0.917-0.408-0.917-0.912v-1.823c0-0.503,0.411-0.912,0.917-0.912c0.506,0,0.917,0.408,0.917,0.912v1.823
	C41.625,203.515,41.215,203.923,40.708,203.923z M36.125,203.923c-0.506,0-0.917-0.408-0.917-0.912v-1.823
	c0-0.503,0.41-0.912,0.917-0.912s0.917,0.408,0.917,0.912v1.823C37.041,203.515,36.631,203.923,36.125,203.923z M31.541,203.923
	c-0.506,0-0.917-0.408-0.917-0.912v-1.823c0-0.503,0.41-0.912,0.917-0.912c0.507,0,0.917,0.408,0.917,0.912v1.823
	C32.458,203.515,32.047,203.923,31.541,203.923z"/>
<path fill="none" d="M39.282,214.648h1.577v-1.289c0-0.349,0.155-0.678,0.57-0.963c0.415-0.285,1.571-0.864,1.571-2.385
	s-1.215-2.567-2.236-2.789c-1.021-0.222-2.127-0.076-2.912,0.827c-0.704,0.808-0.852,1.447-0.852,2.858h1.575v-0.328
	c0-0.752,0.083-1.545,1.106-1.762c0.558-0.118,1.082,0.065,1.393,0.384c0.356,0.364,0.359,1.186-0.207,1.595l-0.889,0.634
	c-0.518,0.349-0.696,0.737-0.696,1.307L39.282,214.648L39.282,214.648z"/>
<path fill="none" d="M40.072,215.296c0.448,0,0.812,0.381,0.812,0.852c0,0.471-0.363,0.852-0.812,0.852
	c-0.449,0-0.813-0.381-0.813-0.852C39.259,215.678,39.623,215.296,40.072,215.296z"/>
</svg>
